<svg width="10" height="11" viewBox="0 0 10 11" fill="none" xmlns="http://www.w3.org/2000/svg">
<path d="M1.53033 1.08059C1.23744 0.787693 0.762563 0.787693 0.46967 1.08059C0.176777 1.37348 0.176777 1.84835 0.46967 2.14125L1.53033 1.08059ZM8.77817 10.1391C9.19239 10.1391 9.52817 9.8033 9.52817 9.38909V2.63909C9.52817 2.22488 9.19239 1.88909 8.77817 1.88909C8.36396 1.88909 8.02817 2.22488 8.02817 2.63909V8.63909H2.02817C1.61396 8.63909 1.27817 8.97488 1.27817 9.38909C1.27817 9.8033 1.61396 10.1391 2.02817 10.1391H8.77817ZM0.46967 2.14125L8.24784 9.91942L9.3085 8.85876L1.53033 1.08059L0.46967 2.14125Z" fill="black"/>
</svg>
