<svg width="14" height="18" viewBox="0 0 14 18" fill="none" xmlns="http://www.w3.org/2000/svg">
<path d="M6.12503 10.125L10.25 6.00001L9.06253 4.8125L6.12503 7.75L4.95836 6.58334L3.77086 7.77084L6.12503 10.125ZM7.00003 17.3333C4.76391 15.4306 3.09378 13.6632 1.98961 12.0313C0.885442 10.3993 0.333359 8.88889 0.333359 7.5C0.333359 5.41667 1.0035 3.75695 2.34378 2.52084C3.68405 1.28473 5.23614 0.666672 7.00003 0.666672C8.76392 0.666672 10.316 1.28473 11.6563 2.52084C12.9966 3.75695 13.6667 5.41667 13.6667 7.5C13.6667 8.88889 13.1146 10.3993 12.0104 12.0313C10.9063 13.6632 9.23614 15.4306 7.00003 17.3333Z" fill="#27AE60"/>
</svg>
